<svg id="Logo" xmlns="http://www.w3.org/2000/svg" width="208.48999" height="134.35247" viewBox="0 0 208.48999 134.35247">
  <defs>
    <style>
      .cls-1 {
        fill: #a40000;
      }

      .cls-2 {
        fill: #222;
      }
    </style>
  </defs>
  <title>logo</title>
  <g id="Logo-2" data-name="Logo">
    <g id="red-parts">
      <path class="cls-1" d="M207.76,6.79a4.80215,4.80215,0,0,1,.73,2.91,7.95224,7.95224,0,0,1-.97,3.4,22.79273,22.79273,0,0,1-12.25,9.7,67.23832,67.23832,0,0,1-19.76,3.39c-2.75.16-5.66.21-8.73.12q-4.605-.12-8.25.12a.5702.5702,0,0,0-.13.01l.79-2.19h1.28q19.41-.24,31.04-6.55a28.588,28.588,0,0,0,7.28-5.82,12.13625,12.13625,0,0,0,3.64-8.48,4.15934,4.15934,0,0,0-.25-1.7.98771.98771,0,0,1-.24-.73c0-.64.24-.97.73-.97.16,0,.4.16.73.49A24.61,24.61,0,0,1,207.76,6.79Z"/>
      <path class="cls-1" d="M123.61005,131.68249c-1.13.13-2.32.24-3.56.33-1.75.13-3.61005.23-5.59.28h-.06c-3.39.07-6.55.12006-9.46.12006-2.42,0-4.73-.05-6.91-.12006a21.4367,21.4367,0,0,1-5.82-.97,9.70218,9.70218,0,0,1-4.12-2.55,6.87341,6.87341,0,0,1-1.58-4.85,11.89794,11.89794,0,0,1,.97-4.37,31.80393,31.80393,0,0,1,2.67-5.09q5.58-9.105,11.27-18.57l4.58,12.78q-1.26,2.61008-2.15,4.94a23.92836,23.92836,0,0,0-1.58,6.43,14.25856,14.25856,0,0,0,.49,3.76,5.91829,5.91829,0,0,0,2.18,3.15,13.52234,13.52234,0,0,0,4.97,2.18,25.16827,25.16827,0,0,0,3.64.62,49.30213,49.30213,0,0,0,4.97.23h2.91a15.23759,15.23759,0,0,0,2.91-.24C124.83,130.39251,124.59,131.03253,123.61005,131.68249Z"/>
      <path class="cls-1" d="M156.48,24.2525l-1.03,2.85a5.37575,5.37575,0,0,0-2.01,1.76q-13.575,20.61-25.1,40.25-6.51,11.1-12.35,21.42l-4.26-12q2.385-4.05,4.73-8.08,6.42-11.04,12.49-21.59,6.06006-10.545,11.15-20.24c.81-1.46.41-2.19-1.21-2.19h-8a195.28994,195.28994,0,0,0-23.16,1.22,56.57473,56.57473,0,0,0-12.99,3.04,43.44375,43.44375,0,0,0-4.71,2.05,40.24741,40.24741,0,0,0-9.26,6.53,46.9725,46.9725,0,0,0-4.44,4.75q-6.075,7.395-11.16,19.76c-.32.65-.69.85-1.09.6a3.28967,3.28967,0,0,1-1.09-1.81,114.46493,114.46493,0,0,1,5.09-12.73,71.03424,71.03424,0,0,1,6.67-11.4,47.80565,47.80565,0,0,1,3.98-4.83,40.35143,40.35143,0,0,1,4.39-4.02,22.38359,22.38359,0,0,1,9.63-4.51c.18-.03.36005-.07.55-.1a64.15245,64.15245,0,0,1,13.57995-1.09q7.515.12,15.04.12,7.02,0,14.06.12c.98.02,1.96.03,2.94.04q5.56494.07507,11.13.08Z"/>
    </g>
    <g id="grey-parts">
      <path class="cls-2" d="M175.04,18.03253v2.24h-14.4l-1.45,3.98-.79,2.19a6.51233,6.51233,0,0,0-2.95.66l1.03-2.85,1.44-3.98h-17.12v-2.24Z"/>
      <path class="cls-2" d="M120.05,132.01l-.85,2.34h-4l-.74-2.06C116.44,132.24,118.3,132.14,120.05,132.01Z"/>
      <path class="cls-2" d="M108.48,18.03v2.24H91.04l1.71,4.81a22.38275,22.38275,0,0,0-9.63,4.51,40.35507,40.35507,0,0,0-4.39,4.02L73.92,20.27H60.48V18.03Z"/>
      <path class="cls-2" d="M158.4,26.4425l-37.61,103.54h-2.27a49.30213,49.30213,0,0,1-4.97-.23l-7.55-21.08-4.58-12.78-13.74-38.34h-.31994l-20.41,56.3-7.43,20.5H55.2L14.4,20.27252H0v-2.24H48.16v2.24H31.52l32.96,92.8h.32l21.28-59.04-5.31-14.76a40.24741,40.24741,0,0,1,9.26-6.53,43.44375,43.44375,0,0,1,4.71-2.05l16.99,47.84,4.26,12,8.01,22.54h.32l31.13-85.97A6.51233,6.51233,0,0,1,158.4,26.4425Z"/>
    </g>
  </g>
</svg>
