<svg width="46" height="46" viewBox="0 0 46 46" fill="none" xmlns="http://www.w3.org/2000/svg">
<mask id="path-1-inside-1" fill="white">
<path fill-rule="evenodd" clip-rule="evenodd" d="M29.0526 0H16.9474V16.9474H0V29.0526H16.9474V46H29.0526V29.0526H46V16.9474H29.0526V0Z"/>
</mask>
<path d="M16.9474 0V-1H15.9474V0H16.9474ZM29.0526 0H30.0526V-1H29.0526V0ZM16.9474 16.9474V17.9474H17.9474V16.9474H16.9474ZM0 16.9474V15.9474H-1V16.9474H0ZM0 29.0526H-1V30.0526H0V29.0526ZM16.9474 29.0526H17.9474V28.0526H16.9474V29.0526ZM16.9474 46H15.9474V47H16.9474V46ZM29.0526 46V47H30.0526V46H29.0526ZM29.0526 29.0526V28.0526H28.0526V29.0526H29.0526ZM46 29.0526V30.0526H47V29.0526H46ZM46 16.9474H47V15.9474H46V16.9474ZM29.0526 16.9474H28.0526V17.9474H29.0526V16.9474ZM16.9474 1H29.0526V-1H16.9474V1ZM17.9474 16.9474V0H15.9474V16.9474H17.9474ZM0 17.9474H16.9474V15.9474H0V17.9474ZM1 29.0526V16.9474H-1V29.0526H1ZM16.9474 28.0526H0V30.0526H16.9474V28.0526ZM17.9474 46V29.0526H15.9474V46H17.9474ZM29.0526 45H16.9474V47H29.0526V45ZM28.0526 29.0526V46H30.0526V29.0526H28.0526ZM46 28.0526H29.0526V30.0526H46V28.0526ZM45 16.9474V29.0526H47V16.9474H45ZM29.0526 17.9474H46V15.9474H29.0526V17.9474ZM28.0526 0V16.9474H30.0526V0H28.0526Z" fill="#222222" mask="url(#path-1-inside-1)"/>
</svg>
